<svg xmlns="http://www.w3.org/2000/svg" width="26.24" height="22.956" viewBox="0 0 26.24 22.956">
  <path id="wind" d="M8.03,13.73H.82a.822.822,0,0,0-.82.82v1.64a.822.822,0,0,0,.82.82H8.107a1.712,1.712,0,0,1,1.712,1.363,1.642,1.642,0,0,1-3.177.794.81.81,0,0,0-.779-.518H4.182a.816.816,0,0,0-.815.943A4.92,4.92,0,0,0,13.073,18,5.028,5.028,0,0,0,8.03,13.73ZM.82,12.09H18.039a4.921,4.921,0,1,0-4.827-5.858.808.808,0,0,0,.81.938H15.7a.8.8,0,0,0,.779-.518,1.642,1.642,0,0,1,3.177.794A1.708,1.708,0,0,1,17.947,8.81H.82A.822.822,0,0,0,0,9.63v1.64A.822.822,0,0,0,.82,12.09ZM20.5,13.73h-8.01a6.478,6.478,0,0,1,2.04,3.28H20.5a2.46,2.46,0,1,1-2.132,3.669.848.848,0,0,0-.743-.389H15.892a.821.821,0,0,0-.784,1.081A5.733,5.733,0,1,0,20.5,13.73Z" transform="translate(0 -2.253)"/>
</svg>
