<svg xmlns="http://www.w3.org/2000/svg" width="17.784" height="22.956" viewBox="0 0 17.784 22.956">
  <path id="humidity" d="M9.072,20.628a9.555,9.555,0,0,1,.864-3.636,20.415,20.415,0,0,1,2.232-3.972,43.687,43.687,0,0,1,4.872-5.6l.9-.864a7.682,7.682,0,0,0,1,.864c.492.5,1.248,1.332,2.256,2.508s1.884,2.22,2.6,3.18A21.322,21.322,0,0,1,25.968,17a9.512,9.512,0,0,1,.888,3.636,8.6,8.6,0,0,1-.7,3.432,8.918,8.918,0,0,1-8.22,5.436,8.8,8.8,0,0,1-3.432-.684,8.671,8.671,0,0,1-2.832-1.86,8.939,8.939,0,0,1-2.6-6.336Zm2.712-3.516a4.077,4.077,0,0,0,.624,2.388,2.193,2.193,0,0,0,1.908.888,2.238,2.238,0,0,0,1.932-.888,4.114,4.114,0,0,0,.648-2.388,4.182,4.182,0,0,0-.648-2.4,2.223,2.223,0,0,0-1.932-.888,2.193,2.193,0,0,0-1.908.888A4.092,4.092,0,0,0,11.784,17.112Zm1.884,0v-.42c0-.1.012-.228.024-.4a1.348,1.348,0,0,1,.06-.384c.036-.084.06-.192.108-.288a.471.471,0,0,1,.18-.216.526.526,0,0,1,.276-.072.535.535,0,0,1,.4.144.85.85,0,0,1,.2.456c.036.216.06.384.072.54s.012.36.012.624,0,.48-.012.624-.036.324-.072.54a.85.85,0,0,1-.2.456.535.535,0,0,1-.4.144.526.526,0,0,1-.276-.072.4.4,0,0,1-.18-.216,1.727,1.727,0,0,1-.108-.288,2.359,2.359,0,0,1-.06-.384c-.012-.168-.024-.3-.024-.384S13.668,17.292,13.668,17.112Zm.708,9.3H15.96l5.988-12.888h-1.62Zm5.16-3.588a4.182,4.182,0,0,0,.66,2.4,2.215,2.215,0,0,0,1.92.888,2.2,2.2,0,0,0,1.92-.888,4.155,4.155,0,0,0,.636-2.4,4.114,4.114,0,0,0-.636-2.388,2.2,2.2,0,0,0-1.92-.888,2.215,2.215,0,0,0-1.92.888A4.027,4.027,0,0,0,19.536,22.824Zm1.884,0c0-.276,0-.48.012-.624s.036-.324.072-.54a.809.809,0,0,1,.2-.456.535.535,0,0,1,.4-.144.57.57,0,0,1,.288.072.459.459,0,0,1,.192.228c.048.108.084.2.12.288a1.348,1.348,0,0,1,.06.384l.012.384v.828l-.012.384-.06.384-.12.288-.192.228L22.1,24.6a.535.535,0,0,1-.4-.144A.85.85,0,0,1,21.5,24q-.054-.324-.072-.54C21.42,23.316,21.42,23.1,21.42,22.824Z" transform="translate(-9.072 -6.552)"/>
</svg>
