<svg xmlns="http://www.w3.org/2000/svg" width="22.956" height="22.956" viewBox="0 0 22.956 22.956">
  <path id="pressure" d="M20.086,2.869H18.922a8.6,8.6,0,1,1-16.052,4.3,8.544,8.544,0,0,1,1.165-4.3H2.869A2.873,2.873,0,0,0,0,5.739V20.086a2.873,2.873,0,0,0,2.869,2.869H20.086a2.873,2.873,0,0,0,2.869-2.869V5.739A2.873,2.873,0,0,0,20.086,2.869ZM11.478,14.347A7.174,7.174,0,1,0,4.3,7.174,7.173,7.173,0,0,0,11.478,14.347Zm-.013-6.812L12.97,4.022a.718.718,0,0,1,1.32.564L12.78,8.108a1.785,1.785,0,1,1-1.316-.573Z"/>
</svg>
