<svg xmlns="http://www.w3.org/2000/svg" width="22.956" height="22.956" viewBox="0 0 22.956 22.956">
  <path id="rain" d="M18.652,5.739c-.027,0-.049.009-.072.009a3.5,3.5,0,0,0,.072-.726,3.573,3.573,0,0,0-6.322-2.3,5,5,0,0,0-9.46,2.3,5.1,5.1,0,0,0,.094.951A4.293,4.293,0,0,0,4.3,14.347H18.652a4.3,4.3,0,1,0,0-8.608ZM3.946,16.778c-.574,1.991-1.793,2.529-1.793,3.932A2.2,2.2,0,0,0,4.3,22.956,2.2,2.2,0,0,0,6.456,20.71c0-1.408-1.22-1.932-1.793-3.932A.37.37,0,0,0,3.946,16.778Zm7.174,0c-.574,1.991-1.793,2.529-1.793,3.932a2.154,2.154,0,1,0,4.3,0c0-1.408-1.22-1.932-1.793-3.932A.37.37,0,0,0,11.119,16.778Zm7.174,0c-.574,1.991-1.793,2.529-1.793,3.932a2.154,2.154,0,1,0,4.3,0c0-1.408-1.22-1.932-1.793-3.932A.37.37,0,0,0,18.293,16.778Z"/>
</svg>
