<svg height="512pt" viewBox="-43 0 512 512" width="512pt" xmlns="http://www.w3.org/2000/svg"><path d="m368 0h-309.332031c-32.363281 0-58.667969 26.304688-58.667969 58.667969v394.664062c0 32.363281 26.304688 58.667969 58.667969 58.667969h309.332031c32.363281 0 58.667969-26.304688 58.667969-58.667969v-394.664062c0-32.363281-26.304688-58.667969-58.667969-58.667969zm-261.332031 346.667969c24.722656 0 42.664062 16.445312 42.664062 39.082031 0 22.933594-18.730469 40.917969-42.664062 40.917969h-26.667969c-8.832031 0-16-7.167969-16-16s7.167969-16 16-16h26.667969c5.3125 0 10.664062-2.753907 10.664062-8.917969s-6.675781-7.082031-10.664062-7.082031c-24.726563 0-42.667969-16.683594-42.667969-39.660157 0-23.019531 18.347656-40.339843 42.667969-40.339843h26.664062c8.832031 0 16 7.167969 16 16s-7.167969 16-16 16h-26.664062c-1.773438 0-10.667969.402343-10.667969 8.339843 0 7.105469 8.171875 7.660157 10.667969 7.660157zm148.757812-27.714844-26.667969 96c-1.941406 6.914063-8.234374 11.714844-15.425781 11.714844-7.1875 0-13.480469-4.800781-15.421875-11.714844l-26.667968-96c-2.367188-8.511719 2.625-17.320313 11.136718-19.710937 8.449219-2.347657 17.324219 2.644531 19.691406 11.113281l11.261719 40.535156 11.242188-40.511719c2.347656-8.46875 11.179687-13.484375 19.691406-11.113281 8.535156 2.367187 13.503906 11.175781 11.160156 19.6875zm59.242188 75.714844h16v-6.253907c-6.230469-2.195312-10.667969-8.125-10.667969-15.082031 0-8.832031 7.167969-16 16-16h10.667969c8.832031 0 16 7.167969 16 16v37.335938c0 8.832031-7.167969 16-16 16h-32c-20.589844 0-37.335938-16.746094-37.335938-37.335938v-53.332031c0-20.585938 16.746094-37.332031 37.335938-37.332031h32c8.832031 0 16 7.167969 16 16s-7.167969 16-16 16h-32c-2.945313 0-5.335938 2.386719-5.335938 5.332031v53.332031c0 2.945313 2.390625 5.335938 5.335938 5.335938zm0 0"/></svg>