<svg aria-hidden="true" width="0" height="0" style="position:absolute"><symbol viewBox="0 0 17.784 22.956" id="3372401b37d6aee5fb162b20ce763c80" xmlns="http://www.w3.org/2000/svg"><path d="M0 14.076a9.555 9.555 0 01.864-3.636 20.415 20.415 0 012.232-3.972 43.687 43.687 0 014.872-5.6l.9-.864a7.682 7.682 0 001 .864c.492.5 1.248 1.332 2.256 2.508s1.884 2.22 2.6 3.18a21.322 21.322 0 012.172 3.892 9.512 9.512 0 01.888 3.636 8.6 8.6 0 01-.7 3.432 8.918 8.918 0 01-8.22 5.436 8.8 8.8 0 01-3.432-.684 8.671 8.671 0 01-2.832-1.86A8.939 8.939 0 010 14.072zm2.712-3.516a4.077 4.077 0 00.624 2.388 2.193 2.193 0 001.908.888 2.238 2.238 0 001.932-.888 4.114 4.114 0 00.648-2.388 4.182 4.182 0 00-.648-2.4 2.223 2.223 0 00-1.932-.888 2.193 2.193 0 00-1.908.888 4.092 4.092 0 00-.624 2.4zm1.884 0v-.42c0-.1.012-.228.024-.4a1.348 1.348 0 01.06-.384c.036-.084.06-.192.108-.288a.471.471 0 01.18-.216.526.526 0 01.276-.072.535.535 0 01.4.144.85.85 0 01.2.456c.036.216.06.384.072.54s.012.36.012.624 0 .48-.012.624-.036.324-.072.54a.85.85 0 01-.2.456.535.535 0 01-.4.144.526.526 0 01-.276-.072.4.4 0 01-.18-.216 1.727 1.727 0 01-.108-.288 2.359 2.359 0 01-.06-.384c-.012-.168-.024-.3-.024-.384v-.404zm.708 9.3h1.584l5.988-12.888h-1.62zm5.16-3.588a4.182 4.182 0 00.66 2.4 2.215 2.215 0 001.92.888 2.2 2.2 0 001.92-.888 4.155 4.155 0 00.636-2.4 4.114 4.114 0 00-.636-2.388 2.2 2.2 0 00-1.92-.888 2.215 2.215 0 00-1.92.888 4.027 4.027 0 00-.66 2.388zm1.884 0c0-.276 0-.48.012-.624s.036-.324.072-.54a.809.809 0 01.2-.456.535.535 0 01.4-.144.57.57 0 01.288.072.459.459 0 01.192.228c.048.108.084.2.12.288a1.348 1.348 0 01.06.384l.012.384v.828l-.012.384-.06.384-.12.288-.192.228-.292.072a.535.535 0 01-.4-.144.85.85 0 01-.2-.456q-.054-.324-.072-.54c-.008-.144-.008-.36-.008-.636z"/></symbol></svg>