<svg aria-hidden="true" width="0" height="0" style="position:absolute"><symbol viewBox="0 0 22.956 22.956" id="83974592c9fb21a9c89df036076f4dd5" xmlns="http://www.w3.org/2000/svg"><path d="M20.086 2.869h-1.164a8.6 8.6 0 11-16.052 4.3 8.544 8.544 0 011.165-4.3H2.869A2.873 2.873 0 000 5.739v14.347a2.873 2.873 0 002.869 2.869h17.217a2.873 2.873 0 002.869-2.869V5.739a2.873 2.873 0 00-2.869-2.87zm-8.608 11.478A7.174 7.174 0 104.3 7.174a7.173 7.173 0 007.178 7.173zm-.013-6.812l1.505-3.513a.718.718 0 011.32.564l-1.51 3.522a1.785 1.785 0 11-1.316-.573z"/></symbol></svg>