<svg aria-hidden="true" width="0" height="0" style="position:absolute"><symbol viewBox="0 0 22.956 22.956" id="a338e7aae104a01661d0711741c900fa" xmlns="http://www.w3.org/2000/svg"><path d="M18.652 5.739c-.027 0-.049.009-.072.009a3.5 3.5 0 00.072-.726 3.573 3.573 0 00-6.322-2.3 5 5 0 00-9.46 2.3 5.1 5.1 0 00.094.951A4.293 4.293 0 004.3 14.347h14.352a4.3 4.3 0 100-8.608zM3.946 16.778c-.574 1.991-1.793 2.529-1.793 3.932A2.2 2.2 0 004.3 22.956a2.2 2.2 0 002.156-2.246c0-1.408-1.22-1.932-1.793-3.932a.37.37 0 00-.717 0zm7.174 0c-.574 1.991-1.793 2.529-1.793 3.932a2.154 2.154 0 104.3 0c0-1.408-1.22-1.932-1.793-3.932a.37.37 0 00-.715 0zm7.174 0c-.574 1.991-1.793 2.529-1.793 3.932a2.154 2.154 0 104.3 0c0-1.408-1.22-1.932-1.793-3.932a.37.37 0 00-.715 0z"/></symbol></svg>