<svg aria-hidden="true" width="0" height="0" style="position:absolute"><symbol viewBox="0 0 26.24 22.956" id="ca035a86d19a4d66a19352bc72b6d6f6" xmlns="http://www.w3.org/2000/svg"><path d="M8.03 11.477H.82a.822.822 0 00-.82.82v1.64a.822.822 0 00.82.82h7.287a1.712 1.712 0 011.712 1.363 1.642 1.642 0 01-3.177.794.81.81 0 00-.779-.518H4.182a.816.816 0 00-.815.943 4.92 4.92 0 009.706-1.592 5.028 5.028 0 00-5.043-4.27zM.82 9.837h17.219a4.921 4.921 0 10-4.827-5.858.808.808 0 00.81.938H15.7a.8.8 0 00.779-.518 1.642 1.642 0 013.177.794 1.708 1.708 0 01-1.709 1.364H.82a.822.822 0 00-.82.82v1.64a.822.822 0 00.82.82zm19.68 1.64h-8.01a6.478 6.478 0 012.04 3.28h5.97a2.46 2.46 0 11-2.132 3.669.848.848 0 00-.743-.389h-1.733a.821.821 0 00-.784 1.081 5.733 5.733 0 105.392-7.641z"/></symbol></svg>